<?xml version="1.0" standalone="no"?>
<!DOCTYPE svg PUBLIC "-//W3C//DTD SVG 20010904//EN"
 "http://www.w3.org/TR/2001/REC-SVG-20010904/DTD/svg10.dtd">
<svg version="1.0" xmlns="http://www.w3.org/2000/svg"
 width="224.000000pt" height="159.000000pt" viewBox="0 0 224.000000 159.000000"
 preserveAspectRatio="xMidYMid meet">

<g transform="translate(0.000000,159.000000) scale(0.100000,-0.100000)"
fill="#000000" stroke="none">
<path d="M1478 798 c-16 -5 -28 -14 -28 -19 0 -5 -3 -8 -7 -7 -15 3 -62 -25
-57 -34 3 -5 8 -32 9 -59 3 -41 1 -49 -13 -49 -11 0 -18 -8 -18 -20 0 -11 4
-20 8 -20 4 0 8 -27 8 -60 0 -45 -4 -60 -14 -60 -8 0 -17 6 -19 13 -4 9 -6 9
-6 -1 -1 -7 10 -17 23 -23 14 -7 22 -17 19 -25 -7 -19 -20 -17 -27 4 -3 9 -4
5 -2 -10 2 -15 -2 -29 -8 -32 -6 -2 30 -3 79 -3 l90 2 6 80 c7 91 18 133 29
114 8 -12 30 -21 155 -65 63 -22 143 -53 230 -89 131 -54 250 -96 268 -93 22
3 24 10 19 106 -2 30 -7 35 -74 66 -180 83 -222 103 -367 172 -85 41 -161 72
-168 69 -8 -2 -11 0 -8 5 4 6 -9 17 -27 24 -54 22 -72 25 -100 14z m-41 -120
c-3 -8 -6 -5 -6 6 -1 11 2 17 5 13 3 -3 4 -12 1 -19z"/>
<path d="M1356 731 c-4 -5 -2 -12 3 -15 5 -4 12 -2 15 3 4 5 2 12 -3 15 -5 4
-12 2 -15 -3z"/>
<path d="M1312 490 c0 -19 2 -27 5 -17 2 9 2 25 0 35 -3 9 -5 1 -5 -18z"/>
<path d="M1660 260 l-115 -59 -435 5 c-239 2 -487 6 -550 8 -114 3 -115 3 -60
-10 60 -15 340 -74 380 -80 53 -8 147 -26 185 -35 53 -12 197 -39 260 -49 91
-15 118 -21 136 -30 25 -14 56 -12 82 4 29 19 331 146 346 146 6 0 11 5 11 10
0 6 4 10 9 10 5 0 22 5 38 12 15 6 48 19 72 28 46 16 66 40 34 40 -10 0 -30 7
-45 14 -15 8 -51 18 -79 21 -29 4 -63 11 -76 16 -46 17 -78 8 -193 -51z"/>
</g>
</svg>
